# xmcd
#
# Track frame offsets:
#	150
#	18973
#	32023
#	42651
#	52956
#	76558
#	85846
#	102356
#	115482
#	124642
#	132433
#	149346
#	164813
#	183016
#	194016
#
# Disc length: 2803 seconds
#
# Revision: 2
# Processed by: cddbd v1.5.2PL0 Copyright (c) Steve Scherf et al.
# Submitted via: EasyCDDAExtractor 12.0.0.1
#
DISCID=cb0af10f
DTITLE=Various Artist - The Magical Music [CD4)
DYEAR=2003
DGENRE=Musical
TTITLE0=Singin' in the Rain - Singin' in the Rain
TTITLE1=Over the Rainbow - The Wizard of Oz
TTITLE2=There are Worse Things I Could Do - Grease
TTITLE3=Supercalifragilisticexpialidocious - Mary Poppins
TTITLE4=Dames - Dames
TTITLE5=Bless Your Beautiful Hide - Seven Brides for Seven Brothers
TTITLE6=The Night They Invented Champagne - Gigi
TTITLE7=Big Spender - Sweet Charity
TTITLE8=Before the Parade Passes By - Hello, Dolly
TTITLE9=Drinking Song - The Student Prince
TTITLE10=How to Handle a Woman - Camelot
TTITLE11=Secret Love - Calamity Jane
TTITLE12=I Could Write a Book - Pal Joey
TTITLE13=True Love - High Society
TTITLE14=Thank You Very Much - Scrooge
EXTD=
EXTT0=
EXTT1=
EXTT2=
EXTT3=
EXTT4=
EXTT5=
EXTT6=
EXTT7=
EXTT8=
EXTT9=
EXTT10=
EXTT11=
EXTT12=
EXTT13=
EXTT14=
PLAYORDER=
